<mxfile host="app.diagrams.net" modified="2020-11-24T11:31:05.598Z" agent="5.0 (Windows NT 10.0; Win64; x64) AppleWebKit/537.36 (KHTML, like Gecko) Chrome/87.0.4280.66 Safari/537.36" etag="cuRHA6Q0_SDc3qr0sVId" version="13.10.1" type="github">
  <diagram name="Page-1" id="e7e014a7-5840-1c2e-5031-d8a46d1fe8dd">
    <mxGraphModel dx="1934" dy="1323" grid="1" gridSize="10" guides="1" tooltips="1" connect="1" arrows="1" fold="1" page="1" pageScale="1" pageWidth="1169" pageHeight="826" background="#ffffff" math="0" shadow="0">
      <root>
        <mxCell id="0" />
        <mxCell id="1" parent="0" />
        <mxCell id="L-JZJ5lhQavrDPrTdJV8-103" style="edgeStyle=orthogonalEdgeStyle;rounded=0;orthogonalLoop=1;jettySize=auto;html=1;entryX=-0.015;entryY=0.3;entryDx=0;entryDy=0;entryPerimeter=0;endArrow=ERmany;endFill=0;" edge="1" parent="1" source="L-JZJ5lhQavrDPrTdJV8-41" target="L-JZJ5lhQavrDPrTdJV8-100">
          <mxGeometry relative="1" as="geometry" />
        </mxCell>
        <mxCell id="L-JZJ5lhQavrDPrTdJV8-41" value="Supermercati" style="shape=table;html=1;whiteSpace=wrap;startSize=30;container=1;collapsible=0;childLayout=tableLayout;fixedRows=1;rowLines=0;fontStyle=1;align=center;fillColor=#ffe6cc;strokeColor=#d79b00;" vertex="1" parent="1">
          <mxGeometry x="-740" y="-535" width="180" height="160" as="geometry" />
        </mxCell>
        <mxCell id="L-JZJ5lhQavrDPrTdJV8-42" value="" style="shape=partialRectangle;html=1;whiteSpace=wrap;collapsible=0;dropTarget=0;pointerEvents=0;fillColor=none;top=0;left=0;bottom=1;right=0;points=[[0,0.5],[1,0.5]];portConstraint=eastwest;" vertex="1" parent="L-JZJ5lhQavrDPrTdJV8-41">
          <mxGeometry y="30" width="180" height="40" as="geometry" />
        </mxCell>
        <mxCell id="L-JZJ5lhQavrDPrTdJV8-43" value="PK" style="shape=partialRectangle;html=1;whiteSpace=wrap;connectable=0;fillColor=none;top=0;left=0;bottom=0;right=0;overflow=hidden;" vertex="1" parent="L-JZJ5lhQavrDPrTdJV8-42">
          <mxGeometry width="40" height="40" as="geometry" />
        </mxCell>
        <mxCell id="L-JZJ5lhQavrDPrTdJV8-44" value="Id_supermercato" style="shape=partialRectangle;html=1;whiteSpace=wrap;connectable=0;fillColor=none;top=0;left=0;bottom=0;right=0;align=left;spacingLeft=6;overflow=hidden;" vertex="1" parent="L-JZJ5lhQavrDPrTdJV8-42">
          <mxGeometry x="40" width="140" height="40" as="geometry" />
        </mxCell>
        <mxCell id="L-JZJ5lhQavrDPrTdJV8-45" value="" style="shape=partialRectangle;html=1;whiteSpace=wrap;collapsible=0;dropTarget=0;pointerEvents=0;fillColor=none;top=0;left=0;bottom=0;right=0;points=[[0,0.5],[1,0.5]];portConstraint=eastwest;" vertex="1" parent="L-JZJ5lhQavrDPrTdJV8-41">
          <mxGeometry y="70" width="180" height="60" as="geometry" />
        </mxCell>
        <mxCell id="L-JZJ5lhQavrDPrTdJV8-46" value="" style="shape=partialRectangle;html=1;whiteSpace=wrap;connectable=0;fillColor=none;top=0;left=0;bottom=0;right=0;overflow=hidden;" vertex="1" parent="L-JZJ5lhQavrDPrTdJV8-45">
          <mxGeometry width="40" height="60" as="geometry" />
        </mxCell>
        <mxCell id="L-JZJ5lhQavrDPrTdJV8-47" value="localita&lt;br&gt;n_dipendenti&lt;br&gt;nome_resp&lt;br&gt;indirizzo" style="shape=partialRectangle;html=1;whiteSpace=wrap;connectable=0;fillColor=none;top=0;left=0;bottom=0;right=0;align=left;spacingLeft=6;overflow=hidden;" vertex="1" parent="L-JZJ5lhQavrDPrTdJV8-45">
          <mxGeometry x="40" width="140" height="60" as="geometry" />
        </mxCell>
        <mxCell id="L-JZJ5lhQavrDPrTdJV8-48" value="" style="shape=partialRectangle;html=1;whiteSpace=wrap;collapsible=0;dropTarget=0;pointerEvents=0;fillColor=none;top=0;left=0;bottom=0;right=0;points=[[0,0.5],[1,0.5]];portConstraint=eastwest;" vertex="1" parent="L-JZJ5lhQavrDPrTdJV8-41">
          <mxGeometry y="130" width="180" height="30" as="geometry" />
        </mxCell>
        <mxCell id="L-JZJ5lhQavrDPrTdJV8-49" value="" style="shape=partialRectangle;html=1;whiteSpace=wrap;connectable=0;fillColor=none;top=0;left=0;bottom=0;right=0;overflow=hidden;" vertex="1" parent="L-JZJ5lhQavrDPrTdJV8-48">
          <mxGeometry width="40" height="30" as="geometry" />
        </mxCell>
        <mxCell id="L-JZJ5lhQavrDPrTdJV8-50" value="" style="shape=partialRectangle;html=1;whiteSpace=wrap;connectable=0;fillColor=none;top=0;left=0;bottom=0;right=0;align=left;spacingLeft=6;overflow=hidden;" vertex="1" parent="L-JZJ5lhQavrDPrTdJV8-48">
          <mxGeometry x="40" width="140" height="30" as="geometry" />
        </mxCell>
        <mxCell id="L-JZJ5lhQavrDPrTdJV8-122" style="edgeStyle=orthogonalEdgeStyle;rounded=0;orthogonalLoop=1;jettySize=auto;html=1;entryX=1;entryY=0.767;entryDx=0;entryDy=0;entryPerimeter=0;endArrow=ERmany;endFill=0;" edge="1" parent="1" source="L-JZJ5lhQavrDPrTdJV8-51" target="L-JZJ5lhQavrDPrTdJV8-113">
          <mxGeometry relative="1" as="geometry" />
        </mxCell>
        <mxCell id="L-JZJ5lhQavrDPrTdJV8-51" value="Appovvigionamenti" style="shape=table;html=1;whiteSpace=wrap;startSize=30;container=1;collapsible=0;childLayout=tableLayout;fixedRows=1;rowLines=0;fontStyle=1;align=center;fillColor=#dae8fc;strokeColor=#6c8ebf;" vertex="1" parent="1">
          <mxGeometry x="-200" y="-550" width="180" height="130" as="geometry" />
        </mxCell>
        <mxCell id="L-JZJ5lhQavrDPrTdJV8-52" value="" style="shape=partialRectangle;html=1;whiteSpace=wrap;collapsible=0;dropTarget=0;pointerEvents=0;fillColor=none;top=0;left=0;bottom=1;right=0;points=[[0,0.5],[1,0.5]];portConstraint=eastwest;" vertex="1" parent="L-JZJ5lhQavrDPrTdJV8-51">
          <mxGeometry y="30" width="180" height="30" as="geometry" />
        </mxCell>
        <mxCell id="L-JZJ5lhQavrDPrTdJV8-53" value="PK" style="shape=partialRectangle;html=1;whiteSpace=wrap;connectable=0;fillColor=none;top=0;left=0;bottom=0;right=0;overflow=hidden;" vertex="1" parent="L-JZJ5lhQavrDPrTdJV8-52">
          <mxGeometry width="40" height="30" as="geometry" />
        </mxCell>
        <mxCell id="L-JZJ5lhQavrDPrTdJV8-54" value="Id_approviggionamento" style="shape=partialRectangle;html=1;whiteSpace=wrap;connectable=0;fillColor=none;top=0;left=0;bottom=0;right=0;align=left;spacingLeft=6;overflow=hidden;" vertex="1" parent="L-JZJ5lhQavrDPrTdJV8-52">
          <mxGeometry x="40" width="140" height="30" as="geometry" />
        </mxCell>
        <mxCell id="L-JZJ5lhQavrDPrTdJV8-55" value="" style="shape=partialRectangle;html=1;whiteSpace=wrap;collapsible=0;dropTarget=0;pointerEvents=0;fillColor=none;top=0;left=0;bottom=0;right=0;points=[[0,0.5],[1,0.5]];portConstraint=eastwest;" vertex="1" parent="L-JZJ5lhQavrDPrTdJV8-51">
          <mxGeometry y="60" width="180" height="30" as="geometry" />
        </mxCell>
        <mxCell id="L-JZJ5lhQavrDPrTdJV8-56" value="" style="shape=partialRectangle;html=1;whiteSpace=wrap;connectable=0;fillColor=none;top=0;left=0;bottom=0;right=0;overflow=hidden;" vertex="1" parent="L-JZJ5lhQavrDPrTdJV8-55">
          <mxGeometry width="40" height="30" as="geometry" />
        </mxCell>
        <mxCell id="L-JZJ5lhQavrDPrTdJV8-57" value="quantita&lt;br&gt;data&lt;br&gt;" style="shape=partialRectangle;html=1;whiteSpace=wrap;connectable=0;fillColor=none;top=0;left=0;bottom=0;right=0;align=left;spacingLeft=6;overflow=hidden;" vertex="1" parent="L-JZJ5lhQavrDPrTdJV8-55">
          <mxGeometry x="40" width="140" height="30" as="geometry" />
        </mxCell>
        <mxCell id="L-JZJ5lhQavrDPrTdJV8-58" value="" style="shape=partialRectangle;html=1;whiteSpace=wrap;collapsible=0;dropTarget=0;pointerEvents=0;fillColor=none;top=0;left=0;bottom=0;right=0;points=[[0,0.5],[1,0.5]];portConstraint=eastwest;" vertex="1" parent="L-JZJ5lhQavrDPrTdJV8-51">
          <mxGeometry y="90" width="180" height="30" as="geometry" />
        </mxCell>
        <mxCell id="L-JZJ5lhQavrDPrTdJV8-59" value="" style="shape=partialRectangle;html=1;whiteSpace=wrap;connectable=0;fillColor=none;top=0;left=0;bottom=0;right=0;overflow=hidden;" vertex="1" parent="L-JZJ5lhQavrDPrTdJV8-58">
          <mxGeometry width="40" height="30" as="geometry" />
        </mxCell>
        <mxCell id="L-JZJ5lhQavrDPrTdJV8-60" value="" style="shape=partialRectangle;html=1;whiteSpace=wrap;connectable=0;fillColor=none;top=0;left=0;bottom=0;right=0;align=left;spacingLeft=6;overflow=hidden;" vertex="1" parent="L-JZJ5lhQavrDPrTdJV8-58">
          <mxGeometry x="40" width="140" height="30" as="geometry" />
        </mxCell>
        <mxCell id="L-JZJ5lhQavrDPrTdJV8-119" style="edgeStyle=orthogonalEdgeStyle;rounded=0;orthogonalLoop=1;jettySize=auto;html=1;endArrow=ERmany;endFill=0;" edge="1" parent="1" source="L-JZJ5lhQavrDPrTdJV8-61">
          <mxGeometry relative="1" as="geometry">
            <mxPoint x="-463" y="-330" as="targetPoint" />
            <Array as="points">
              <mxPoint x="-630" y="-330" />
            </Array>
          </mxGeometry>
        </mxCell>
        <mxCell id="L-JZJ5lhQavrDPrTdJV8-61" value="Prodotti" style="shape=table;html=1;whiteSpace=wrap;startSize=30;container=1;collapsible=0;childLayout=tableLayout;fixedRows=1;rowLines=0;fontStyle=1;align=center;fillColor=#e1d5e7;strokeColor=#9673a6;" vertex="1" parent="1">
          <mxGeometry x="-720" y="-255" width="180" height="150" as="geometry" />
        </mxCell>
        <mxCell id="L-JZJ5lhQavrDPrTdJV8-62" value="" style="shape=partialRectangle;html=1;whiteSpace=wrap;collapsible=0;dropTarget=0;pointerEvents=0;fillColor=none;top=0;left=0;bottom=1;right=0;points=[[0,0.5],[1,0.5]];portConstraint=eastwest;" vertex="1" parent="L-JZJ5lhQavrDPrTdJV8-61">
          <mxGeometry y="30" width="180" height="30" as="geometry" />
        </mxCell>
        <mxCell id="L-JZJ5lhQavrDPrTdJV8-63" value="PK" style="shape=partialRectangle;html=1;whiteSpace=wrap;connectable=0;fillColor=none;top=0;left=0;bottom=0;right=0;overflow=hidden;" vertex="1" parent="L-JZJ5lhQavrDPrTdJV8-62">
          <mxGeometry width="40" height="30" as="geometry" />
        </mxCell>
        <mxCell id="L-JZJ5lhQavrDPrTdJV8-64" value="Id_prodotto" style="shape=partialRectangle;html=1;whiteSpace=wrap;connectable=0;fillColor=none;top=0;left=0;bottom=0;right=0;align=left;spacingLeft=6;overflow=hidden;" vertex="1" parent="L-JZJ5lhQavrDPrTdJV8-62">
          <mxGeometry x="40" width="140" height="30" as="geometry" />
        </mxCell>
        <mxCell id="L-JZJ5lhQavrDPrTdJV8-65" value="" style="shape=partialRectangle;html=1;whiteSpace=wrap;collapsible=0;dropTarget=0;pointerEvents=0;fillColor=none;top=0;left=0;bottom=0;right=0;points=[[0,0.5],[1,0.5]];portConstraint=eastwest;" vertex="1" parent="L-JZJ5lhQavrDPrTdJV8-61">
          <mxGeometry y="60" width="180" height="60" as="geometry" />
        </mxCell>
        <mxCell id="L-JZJ5lhQavrDPrTdJV8-66" value="" style="shape=partialRectangle;html=1;whiteSpace=wrap;connectable=0;fillColor=none;top=0;left=0;bottom=0;right=0;overflow=hidden;" vertex="1" parent="L-JZJ5lhQavrDPrTdJV8-65">
          <mxGeometry width="40" height="60" as="geometry" />
        </mxCell>
        <mxCell id="L-JZJ5lhQavrDPrTdJV8-67" value="prezzo&lt;br&gt;Casa_prodotto&lt;br&gt;destinatario&lt;br&gt;descrizione" style="shape=partialRectangle;html=1;whiteSpace=wrap;connectable=0;fillColor=none;top=0;left=0;bottom=0;right=0;align=left;spacingLeft=6;overflow=hidden;" vertex="1" parent="L-JZJ5lhQavrDPrTdJV8-65">
          <mxGeometry x="40" width="140" height="60" as="geometry" />
        </mxCell>
        <mxCell id="L-JZJ5lhQavrDPrTdJV8-68" value="" style="shape=partialRectangle;html=1;whiteSpace=wrap;collapsible=0;dropTarget=0;pointerEvents=0;fillColor=none;top=0;left=0;bottom=0;right=0;points=[[0,0.5],[1,0.5]];portConstraint=eastwest;" vertex="1" parent="L-JZJ5lhQavrDPrTdJV8-61">
          <mxGeometry y="120" width="180" height="30" as="geometry" />
        </mxCell>
        <mxCell id="L-JZJ5lhQavrDPrTdJV8-69" value="FK" style="shape=partialRectangle;html=1;whiteSpace=wrap;connectable=0;fillColor=none;top=0;left=0;bottom=0;right=0;overflow=hidden;" vertex="1" parent="L-JZJ5lhQavrDPrTdJV8-68">
          <mxGeometry width="40" height="30" as="geometry" />
        </mxCell>
        <mxCell id="L-JZJ5lhQavrDPrTdJV8-70" value="Id_magazzino" style="shape=partialRectangle;html=1;whiteSpace=wrap;connectable=0;fillColor=none;top=0;left=0;bottom=0;right=0;align=left;spacingLeft=6;overflow=hidden;" vertex="1" parent="L-JZJ5lhQavrDPrTdJV8-68">
          <mxGeometry x="40" width="140" height="30" as="geometry" />
        </mxCell>
        <mxCell id="L-JZJ5lhQavrDPrTdJV8-71" value="Fornitori" style="shape=table;html=1;whiteSpace=wrap;startSize=30;container=1;collapsible=0;childLayout=tableLayout;fixedRows=1;rowLines=0;fontStyle=1;align=center;fillColor=#d5e8d4;strokeColor=#82b366;" vertex="1" parent="1">
          <mxGeometry x="-200" y="-270" width="180" height="150" as="geometry" />
        </mxCell>
        <mxCell id="L-JZJ5lhQavrDPrTdJV8-72" value="" style="shape=partialRectangle;html=1;whiteSpace=wrap;collapsible=0;dropTarget=0;pointerEvents=0;fillColor=none;top=0;left=0;bottom=1;right=0;points=[[0,0.5],[1,0.5]];portConstraint=eastwest;" vertex="1" parent="L-JZJ5lhQavrDPrTdJV8-71">
          <mxGeometry y="30" width="180" height="30" as="geometry" />
        </mxCell>
        <mxCell id="L-JZJ5lhQavrDPrTdJV8-73" value="PK" style="shape=partialRectangle;html=1;whiteSpace=wrap;connectable=0;fillColor=none;top=0;left=0;bottom=0;right=0;overflow=hidden;" vertex="1" parent="L-JZJ5lhQavrDPrTdJV8-72">
          <mxGeometry width="40" height="30" as="geometry" />
        </mxCell>
        <mxCell id="L-JZJ5lhQavrDPrTdJV8-74" value="Id_fornitore" style="shape=partialRectangle;html=1;whiteSpace=wrap;connectable=0;fillColor=none;top=0;left=0;bottom=0;right=0;align=left;spacingLeft=6;overflow=hidden;" vertex="1" parent="L-JZJ5lhQavrDPrTdJV8-72">
          <mxGeometry x="40" width="140" height="30" as="geometry" />
        </mxCell>
        <mxCell id="L-JZJ5lhQavrDPrTdJV8-75" value="" style="shape=partialRectangle;html=1;whiteSpace=wrap;collapsible=0;dropTarget=0;pointerEvents=0;fillColor=none;top=0;left=0;bottom=0;right=0;points=[[0,0.5],[1,0.5]];portConstraint=eastwest;" vertex="1" parent="L-JZJ5lhQavrDPrTdJV8-71">
          <mxGeometry y="60" width="180" height="30" as="geometry" />
        </mxCell>
        <mxCell id="L-JZJ5lhQavrDPrTdJV8-76" value="" style="shape=partialRectangle;html=1;whiteSpace=wrap;connectable=0;fillColor=none;top=0;left=0;bottom=0;right=0;overflow=hidden;" vertex="1" parent="L-JZJ5lhQavrDPrTdJV8-75">
          <mxGeometry width="40" height="30" as="geometry" />
        </mxCell>
        <mxCell id="L-JZJ5lhQavrDPrTdJV8-77" value="sede&lt;br&gt;nome&lt;br&gt;codice_fiscale" style="shape=partialRectangle;html=1;whiteSpace=wrap;connectable=0;fillColor=none;top=0;left=0;bottom=0;right=0;align=left;spacingLeft=6;overflow=hidden;" vertex="1" parent="L-JZJ5lhQavrDPrTdJV8-75">
          <mxGeometry x="40" width="140" height="30" as="geometry" />
        </mxCell>
        <mxCell id="L-JZJ5lhQavrDPrTdJV8-78" value="" style="shape=partialRectangle;html=1;whiteSpace=wrap;collapsible=0;dropTarget=0;pointerEvents=0;fillColor=none;top=0;left=0;bottom=0;right=0;points=[[0,0.5],[1,0.5]];portConstraint=eastwest;" vertex="1" parent="L-JZJ5lhQavrDPrTdJV8-71">
          <mxGeometry y="90" width="180" height="30" as="geometry" />
        </mxCell>
        <mxCell id="L-JZJ5lhQavrDPrTdJV8-79" value="" style="shape=partialRectangle;html=1;whiteSpace=wrap;connectable=0;fillColor=none;top=0;left=0;bottom=0;right=0;overflow=hidden;" vertex="1" parent="L-JZJ5lhQavrDPrTdJV8-78">
          <mxGeometry width="40" height="30" as="geometry" />
        </mxCell>
        <mxCell id="L-JZJ5lhQavrDPrTdJV8-80" value="" style="shape=partialRectangle;html=1;whiteSpace=wrap;connectable=0;fillColor=none;top=0;left=0;bottom=0;right=0;align=left;spacingLeft=6;overflow=hidden;" vertex="1" parent="L-JZJ5lhQavrDPrTdJV8-78">
          <mxGeometry x="40" width="140" height="30" as="geometry" />
        </mxCell>
        <mxCell id="L-JZJ5lhQavrDPrTdJV8-83" value="Magazzino" style="shape=table;html=1;whiteSpace=wrap;startSize=30;container=1;collapsible=0;childLayout=tableLayout;fixedRows=1;rowLines=0;fontStyle=1;align=center;fillColor=#fff2cc;strokeColor=#d6b656;" vertex="1" parent="1">
          <mxGeometry x="-460" y="-210" width="180" height="113" as="geometry" />
        </mxCell>
        <mxCell id="L-JZJ5lhQavrDPrTdJV8-84" value="" style="shape=partialRectangle;html=1;whiteSpace=wrap;collapsible=0;dropTarget=0;pointerEvents=0;fillColor=none;top=0;left=0;bottom=1;right=0;points=[[0,0.5],[1,0.5]];portConstraint=eastwest;" vertex="1" parent="L-JZJ5lhQavrDPrTdJV8-83">
          <mxGeometry y="30" width="180" height="30" as="geometry" />
        </mxCell>
        <mxCell id="L-JZJ5lhQavrDPrTdJV8-85" value="PK" style="shape=partialRectangle;html=1;whiteSpace=wrap;connectable=0;fillColor=none;top=0;left=0;bottom=0;right=0;overflow=hidden;" vertex="1" parent="L-JZJ5lhQavrDPrTdJV8-84">
          <mxGeometry width="40" height="30" as="geometry" />
        </mxCell>
        <mxCell id="L-JZJ5lhQavrDPrTdJV8-86" value="Id_magazzino" style="shape=partialRectangle;html=1;whiteSpace=wrap;connectable=0;fillColor=none;top=0;left=0;bottom=0;right=0;align=left;spacingLeft=6;overflow=hidden;" vertex="1" parent="L-JZJ5lhQavrDPrTdJV8-84">
          <mxGeometry x="40" width="140" height="30" as="geometry" />
        </mxCell>
        <mxCell id="L-JZJ5lhQavrDPrTdJV8-90" value="" style="shape=partialRectangle;html=1;whiteSpace=wrap;collapsible=0;dropTarget=0;pointerEvents=0;fillColor=none;top=0;left=0;bottom=0;right=0;points=[[0,0.5],[1,0.5]];portConstraint=eastwest;" vertex="1" parent="L-JZJ5lhQavrDPrTdJV8-83">
          <mxGeometry y="60" width="180" height="30" as="geometry" />
        </mxCell>
        <mxCell id="L-JZJ5lhQavrDPrTdJV8-91" value="" style="shape=partialRectangle;html=1;whiteSpace=wrap;connectable=0;fillColor=none;top=0;left=0;bottom=0;right=0;overflow=hidden;" vertex="1" parent="L-JZJ5lhQavrDPrTdJV8-90">
          <mxGeometry width="40" height="30" as="geometry" />
        </mxCell>
        <mxCell id="L-JZJ5lhQavrDPrTdJV8-92" value="luogo" style="shape=partialRectangle;html=1;whiteSpace=wrap;connectable=0;fillColor=none;top=0;left=0;bottom=0;right=0;align=left;spacingLeft=6;overflow=hidden;" vertex="1" parent="L-JZJ5lhQavrDPrTdJV8-90">
          <mxGeometry x="40" width="140" height="30" as="geometry" />
        </mxCell>
        <mxCell id="L-JZJ5lhQavrDPrTdJV8-93" value="Supermercati/approvigionamenti" style="shape=table;html=1;whiteSpace=wrap;startSize=30;container=1;collapsible=0;childLayout=tableLayout;fixedRows=1;rowLines=0;fontStyle=1;align=center;" vertex="1" parent="1">
          <mxGeometry x="-460" y="-550" width="200" height="150" as="geometry" />
        </mxCell>
        <mxCell id="L-JZJ5lhQavrDPrTdJV8-94" value="" style="shape=partialRectangle;html=1;whiteSpace=wrap;collapsible=0;dropTarget=0;pointerEvents=0;fillColor=none;top=0;left=0;bottom=1;right=0;points=[[0,0.5],[1,0.5]];portConstraint=eastwest;" vertex="1" parent="L-JZJ5lhQavrDPrTdJV8-93">
          <mxGeometry y="30" width="200" height="30" as="geometry" />
        </mxCell>
        <mxCell id="L-JZJ5lhQavrDPrTdJV8-95" value="PK" style="shape=partialRectangle;html=1;whiteSpace=wrap;connectable=0;fillColor=none;top=0;left=0;bottom=0;right=0;overflow=hidden;" vertex="1" parent="L-JZJ5lhQavrDPrTdJV8-94">
          <mxGeometry width="40" height="30" as="geometry" />
        </mxCell>
        <mxCell id="L-JZJ5lhQavrDPrTdJV8-96" value="Id_superapprov" style="shape=partialRectangle;html=1;whiteSpace=wrap;connectable=0;fillColor=none;top=0;left=0;bottom=0;right=0;align=left;spacingLeft=6;overflow=hidden;" vertex="1" parent="L-JZJ5lhQavrDPrTdJV8-94">
          <mxGeometry x="40" width="160" height="30" as="geometry" />
        </mxCell>
        <mxCell id="L-JZJ5lhQavrDPrTdJV8-97" value="" style="shape=partialRectangle;html=1;whiteSpace=wrap;collapsible=0;dropTarget=0;pointerEvents=0;fillColor=none;top=0;left=0;bottom=0;right=0;points=[[0,0.5],[1,0.5]];portConstraint=eastwest;" vertex="1" parent="L-JZJ5lhQavrDPrTdJV8-93">
          <mxGeometry y="60" width="200" height="30" as="geometry" />
        </mxCell>
        <mxCell id="L-JZJ5lhQavrDPrTdJV8-98" value="" style="shape=partialRectangle;html=1;whiteSpace=wrap;connectable=0;fillColor=none;top=0;left=0;bottom=0;right=0;overflow=hidden;" vertex="1" parent="L-JZJ5lhQavrDPrTdJV8-97">
          <mxGeometry width="40" height="30" as="geometry" />
        </mxCell>
        <mxCell id="L-JZJ5lhQavrDPrTdJV8-99" value="" style="shape=partialRectangle;html=1;whiteSpace=wrap;connectable=0;fillColor=none;top=0;left=0;bottom=0;right=0;align=left;spacingLeft=6;overflow=hidden;" vertex="1" parent="L-JZJ5lhQavrDPrTdJV8-97">
          <mxGeometry x="40" width="160" height="30" as="geometry" />
        </mxCell>
        <mxCell id="L-JZJ5lhQavrDPrTdJV8-100" value="" style="shape=partialRectangle;html=1;whiteSpace=wrap;collapsible=0;dropTarget=0;pointerEvents=0;fillColor=none;top=0;left=0;bottom=0;right=0;points=[[0,0.5],[1,0.5]];portConstraint=eastwest;" vertex="1" parent="L-JZJ5lhQavrDPrTdJV8-93">
          <mxGeometry y="90" width="200" height="30" as="geometry" />
        </mxCell>
        <mxCell id="L-JZJ5lhQavrDPrTdJV8-101" value="FK" style="shape=partialRectangle;html=1;whiteSpace=wrap;connectable=0;fillColor=none;top=0;left=0;bottom=0;right=0;overflow=hidden;" vertex="1" parent="L-JZJ5lhQavrDPrTdJV8-100">
          <mxGeometry width="40" height="30" as="geometry" />
        </mxCell>
        <mxCell id="L-JZJ5lhQavrDPrTdJV8-102" value="&lt;span&gt;Id_approviggionamento&lt;/span&gt;&lt;br&gt;&lt;span&gt;Id_supermercato&lt;/span&gt;" style="shape=partialRectangle;html=1;whiteSpace=wrap;connectable=0;fillColor=none;top=0;left=0;bottom=0;right=0;align=left;spacingLeft=6;overflow=hidden;" vertex="1" parent="L-JZJ5lhQavrDPrTdJV8-100">
          <mxGeometry x="40" width="160" height="30" as="geometry" />
        </mxCell>
        <mxCell id="L-JZJ5lhQavrDPrTdJV8-104" style="edgeStyle=orthogonalEdgeStyle;rounded=0;orthogonalLoop=1;jettySize=auto;html=1;entryX=1;entryY=0.5;entryDx=0;entryDy=0;endArrow=ERmany;endFill=0;" edge="1" parent="1" source="L-JZJ5lhQavrDPrTdJV8-55" target="L-JZJ5lhQavrDPrTdJV8-97">
          <mxGeometry relative="1" as="geometry" />
        </mxCell>
        <mxCell id="L-JZJ5lhQavrDPrTdJV8-105" style="edgeStyle=orthogonalEdgeStyle;rounded=0;orthogonalLoop=1;jettySize=auto;html=1;entryX=1;entryY=0.5;entryDx=0;entryDy=0;endArrow=ERmany;endFill=0;" edge="1" parent="1" source="L-JZJ5lhQavrDPrTdJV8-84" target="L-JZJ5lhQavrDPrTdJV8-65">
          <mxGeometry relative="1" as="geometry" />
        </mxCell>
        <mxCell id="L-JZJ5lhQavrDPrTdJV8-106" style="edgeStyle=orthogonalEdgeStyle;rounded=0;orthogonalLoop=1;jettySize=auto;html=1;entryX=-0.011;entryY=1.167;entryDx=0;entryDy=0;entryPerimeter=0;endArrow=ERmany;endFill=0;" edge="1" parent="1" source="L-JZJ5lhQavrDPrTdJV8-90" target="L-JZJ5lhQavrDPrTdJV8-78">
          <mxGeometry relative="1" as="geometry" />
        </mxCell>
        <mxCell id="L-JZJ5lhQavrDPrTdJV8-107" value="FK" style="text;html=1;align=center;verticalAlign=middle;resizable=0;points=[];autosize=1;" vertex="1" parent="1">
          <mxGeometry x="-195" y="-190" width="30" height="20" as="geometry" />
        </mxCell>
        <mxCell id="L-JZJ5lhQavrDPrTdJV8-108" value="Id_magazzino" style="text;html=1;align=center;verticalAlign=middle;resizable=0;points=[];autosize=1;" vertex="1" parent="1">
          <mxGeometry x="-160" y="-190" width="90" height="20" as="geometry" />
        </mxCell>
        <mxCell id="L-JZJ5lhQavrDPrTdJV8-109" value="Appovigionamenti/Prodotti" style="shape=table;html=1;whiteSpace=wrap;startSize=30;container=1;collapsible=0;childLayout=tableLayout;fixedRows=1;rowLines=0;fontStyle=1;align=center;" vertex="1" parent="1">
          <mxGeometry x="-460" y="-380" width="180" height="150" as="geometry" />
        </mxCell>
        <mxCell id="L-JZJ5lhQavrDPrTdJV8-110" value="" style="shape=partialRectangle;html=1;whiteSpace=wrap;collapsible=0;dropTarget=0;pointerEvents=0;fillColor=none;top=0;left=0;bottom=1;right=0;points=[[0,0.5],[1,0.5]];portConstraint=eastwest;" vertex="1" parent="L-JZJ5lhQavrDPrTdJV8-109">
          <mxGeometry y="30" width="180" height="30" as="geometry" />
        </mxCell>
        <mxCell id="L-JZJ5lhQavrDPrTdJV8-111" value="PK" style="shape=partialRectangle;html=1;whiteSpace=wrap;connectable=0;fillColor=none;top=0;left=0;bottom=0;right=0;overflow=hidden;" vertex="1" parent="L-JZJ5lhQavrDPrTdJV8-110">
          <mxGeometry width="40" height="30" as="geometry" />
        </mxCell>
        <mxCell id="L-JZJ5lhQavrDPrTdJV8-112" value="Id_appProd" style="shape=partialRectangle;html=1;whiteSpace=wrap;connectable=0;fillColor=none;top=0;left=0;bottom=0;right=0;align=left;spacingLeft=6;overflow=hidden;" vertex="1" parent="L-JZJ5lhQavrDPrTdJV8-110">
          <mxGeometry x="40" width="140" height="30" as="geometry" />
        </mxCell>
        <mxCell id="L-JZJ5lhQavrDPrTdJV8-113" value="" style="shape=partialRectangle;html=1;whiteSpace=wrap;collapsible=0;dropTarget=0;pointerEvents=0;fillColor=none;top=0;left=0;bottom=0;right=0;points=[[0,0.5],[1,0.5]];portConstraint=eastwest;" vertex="1" parent="L-JZJ5lhQavrDPrTdJV8-109">
          <mxGeometry y="60" width="180" height="30" as="geometry" />
        </mxCell>
        <mxCell id="L-JZJ5lhQavrDPrTdJV8-114" value="" style="shape=partialRectangle;html=1;whiteSpace=wrap;connectable=0;fillColor=none;top=0;left=0;bottom=0;right=0;overflow=hidden;" vertex="1" parent="L-JZJ5lhQavrDPrTdJV8-113">
          <mxGeometry width="40" height="30" as="geometry" />
        </mxCell>
        <mxCell id="L-JZJ5lhQavrDPrTdJV8-115" value="" style="shape=partialRectangle;html=1;whiteSpace=wrap;connectable=0;fillColor=none;top=0;left=0;bottom=0;right=0;align=left;spacingLeft=6;overflow=hidden;" vertex="1" parent="L-JZJ5lhQavrDPrTdJV8-113">
          <mxGeometry x="40" width="140" height="30" as="geometry" />
        </mxCell>
        <mxCell id="L-JZJ5lhQavrDPrTdJV8-116" value="" style="shape=partialRectangle;html=1;whiteSpace=wrap;collapsible=0;dropTarget=0;pointerEvents=0;fillColor=none;top=0;left=0;bottom=0;right=0;points=[[0,0.5],[1,0.5]];portConstraint=eastwest;" vertex="1" parent="L-JZJ5lhQavrDPrTdJV8-109">
          <mxGeometry y="90" width="180" height="30" as="geometry" />
        </mxCell>
        <mxCell id="L-JZJ5lhQavrDPrTdJV8-117" value="FK" style="shape=partialRectangle;html=1;whiteSpace=wrap;connectable=0;fillColor=none;top=0;left=0;bottom=0;right=0;overflow=hidden;" vertex="1" parent="L-JZJ5lhQavrDPrTdJV8-116">
          <mxGeometry width="40" height="30" as="geometry" />
        </mxCell>
        <mxCell id="L-JZJ5lhQavrDPrTdJV8-118" value="Id_appoviggionamento&lt;br&gt;Id_prodotto" style="shape=partialRectangle;html=1;whiteSpace=wrap;connectable=0;fillColor=none;top=0;left=0;bottom=0;right=0;align=left;spacingLeft=6;overflow=hidden;" vertex="1" parent="L-JZJ5lhQavrDPrTdJV8-116">
          <mxGeometry x="40" width="140" height="30" as="geometry" />
        </mxCell>
      </root>
    </mxGraphModel>
  </diagram>
</mxfile>
